<svg width="24" height="24" viewBox="0 0 24 24" fill="none" xmlns="http://www.w3.org/2000/svg">
<mask id="mask0_143_68" style="mask-type:alpha" maskUnits="userSpaceOnUse" x="0" y="0" width="24" height="24">
<rect width="24" height="24" fill="#D9D9D9"/>
</mask>
<g mask="url(#mask0_143_68)">
<path d="M5.85 17.2575C6.7 16.606 7.65 16.0923 8.7 15.7164C9.75 15.3405 10.85 15.1526 12 15.1526C13.15 15.1526 14.25 15.3405 15.3 15.7164C16.35 16.0923 17.3 16.606 18.15 17.2575C18.7333 16.5726 19.1875 15.7958 19.5125 14.9271C19.8375 14.0584 20 13.1312 20 12.1455C20 9.92367 19.2208 8.03174 17.6625 6.46975C16.1042 4.90776 14.2167 4.12677 12 4.12677C9.78333 4.12677 7.89583 4.90776 6.3375 6.46975C4.77917 8.03174 4 9.92367 4 12.1455C4 13.1312 4.1625 14.0584 4.4875 14.9271C4.8125 15.7958 5.26667 16.5726 5.85 17.2575ZM12 13.1479C11.0167 13.1479 10.1875 12.8096 9.5125 12.133C8.8375 11.4564 8.5 10.6253 8.5 9.63968C8.5 8.65403 8.8375 7.82292 9.5125 7.14634C10.1875 6.46975 11.0167 6.13146 12 6.13146C12.9833 6.13146 13.8125 6.46975 14.4875 7.14634C15.1625 7.82292 15.5 8.65403 15.5 9.63968C15.5 10.6253 15.1625 11.4564 14.4875 12.133C13.8125 12.8096 12.9833 13.1479 12 13.1479ZM12 22.169C10.6167 22.169 9.31667 21.9059 8.1 21.3797C6.88333 20.8534 5.825 20.1393 4.925 19.2372C4.025 18.335 3.3125 17.2742 2.7875 16.0547C2.2625 14.8352 2 13.5321 2 12.1455C2 10.759 2.2625 9.45591 2.7875 8.23639C3.3125 7.01687 4.025 5.95605 4.925 5.05394C5.825 4.15182 6.88333 3.43765 8.1 2.91142C9.31667 2.38519 10.6167 2.12207 12 2.12207C13.3833 2.12207 14.6833 2.38519 15.9 2.91142C17.1167 3.43765 18.175 4.15182 19.075 5.05394C19.975 5.95605 20.6875 7.01687 21.2125 8.23639C21.7375 9.45591 22 10.759 22 12.1455C22 13.5321 21.7375 14.8352 21.2125 16.0547C20.6875 17.2742 19.975 18.335 19.075 19.2372C18.175 20.1393 17.1167 20.8534 15.9 21.3797C14.6833 21.9059 13.3833 22.169 12 22.169ZM12 20.1643C12.8833 20.1643 13.7167 20.0349 14.5 19.7759C15.2833 19.517 16 19.1453 16.65 18.6608C16 18.1763 15.2833 17.8046 14.5 17.5457C13.7167 17.2867 12.8833 17.1573 12 17.1573C11.1167 17.1573 10.2833 17.2867 9.5 17.5457C8.71667 17.8046 8 18.1763 7.35 18.6608C8 19.1453 8.71667 19.517 9.5 19.7759C10.2833 20.0349 11.1167 20.1643 12 20.1643ZM12 11.1432C12.4333 11.1432 12.7917 11.0012 13.075 10.7172C13.3583 10.4332 13.5 10.074 13.5 9.63968C13.5 9.20532 13.3583 8.84615 13.075 8.56215C12.7917 8.27815 12.4333 8.13615 12 8.13615C11.5667 8.13615 11.2083 8.27815 10.925 8.56215C10.6417 8.84615 10.5 9.20532 10.5 9.63968C10.5 10.074 10.6417 10.4332 10.925 10.7172C11.2083 11.0012 11.5667 11.1432 12 11.1432Z" fill="#5B5B5B"/>
</g>
</svg>
