<svg width="71" height="71" viewBox="0 0 71 71" fill="none" xmlns="http://www.w3.org/2000/svg">
<circle cx="35.25" cy="35.25" r="35.25" fill="#101010"/>
<path fill-rule="evenodd" clip-rule="evenodd" d="M35.0988 20C38.3077 20 41.385 21.4106 43.654 23.9214C45.923 26.4323 47.1977 29.8378 47.1977 33.3886C47.1977 37.9616 44.9446 41.7045 42.5706 44.3897C41.3842 45.7165 40.09 46.9196 38.7043 47.9838L38.1316 48.4152L37.8628 48.613L37.356 48.9701L36.9043 49.275L36.345 49.635C35.9653 49.8742 35.5358 50 35.0988 50C34.6619 50 34.2324 49.8742 33.8527 49.635L33.2934 49.275L32.5944 48.799L32.3363 48.613L31.7851 48.2069C30.2902 47.0872 28.8976 45.8087 27.6271 44.3897C25.2531 41.703 23 37.9616 23 33.3886C23 29.8378 24.2747 26.4323 26.5437 23.9214C28.8126 21.4106 31.89 20 35.0988 20ZM35.0988 22.9753C32.6031 22.9753 30.2096 24.0724 28.4448 26.0253C26.6801 27.9782 25.6886 30.6268 25.6886 33.3886C25.6886 36.8429 27.3986 39.8747 29.5482 42.3085C30.4725 43.3437 31.4715 44.294 32.5352 45.1498L33.1509 45.6348C33.3499 45.788 33.5408 45.9308 33.725 46.0632L34.2492 46.4351L34.7103 46.7461L35.0988 46.9975L35.7105 46.5973L36.2039 46.2551C36.466 46.0707 36.7483 45.8639 37.0468 45.6348L37.6625 45.1498C38.7262 44.294 39.7251 43.3437 40.6495 42.3085C42.7991 39.8762 44.5091 36.8429 44.5091 33.3886C44.5091 30.6268 43.5176 27.9782 41.7529 26.0253C39.9881 24.0724 37.5946 22.9753 35.0988 22.9753ZM35.0988 27.4381C36.525 27.4381 37.8927 28.0651 38.9011 29.181C39.9096 30.2969 40.4761 31.8105 40.4761 33.3886C40.4761 34.9668 39.9096 36.4804 38.9011 37.5963C37.8927 38.7122 36.525 39.3392 35.0988 39.3392C33.6727 39.3392 32.305 38.7122 31.2965 37.5963C30.2881 36.4804 29.7216 34.9668 29.7216 33.3886C29.7216 31.8105 30.2881 30.2969 31.2965 29.181C32.305 28.0651 33.6727 27.4381 35.0988 27.4381ZM35.0988 30.4134C34.3858 30.4134 33.7019 30.7269 33.1977 31.2848C32.6935 31.8428 32.4102 32.5996 32.4102 33.3886C32.4102 34.1777 32.6935 34.9345 33.1977 35.4925C33.7019 36.0504 34.3858 36.3639 35.0988 36.3639C35.8119 36.3639 36.4958 36.0504 37 35.4925C37.5042 34.9345 37.7875 34.1777 37.7875 33.3886C37.7875 32.5996 37.5042 31.8428 37 31.2848C36.4958 30.7269 35.8119 30.4134 35.0988 30.4134Z" fill="white"/>
</svg>
