<svg width="38" height="38" viewBox="0 0 38 38" fill="none" xmlns="http://www.w3.org/2000/svg">
<path d="M27.4814 0.355469C30.1564 0.358987 32.7346 1.60034 34.6455 3.83008C36.4384 5.92231 37.5024 8.72186 37.6309 11.6807L37.6445 12.2744C37.6442 19.0583 33.3271 25.2396 28.8486 29.8164C24.3809 34.3822 19.8179 37.2853 19.4561 37.5088L19.4541 37.5098C19.3108 37.5997 19.1548 37.6445 19 37.6445C18.8452 37.6445 18.6892 37.5997 18.5459 37.5098L18.5439 37.5088L18.2197 37.3008C17.0427 36.5329 13.0605 33.8114 9.15137 29.8164C4.67293 25.2396 0.35576 19.0583 0.355469 12.2744C0.358536 9.09836 1.44211 6.06172 3.35449 3.83008C5.26522 1.60055 7.84288 0.359217 10.5176 0.355469C13.8932 0.355469 16.8511 2.04656 18.7012 4.92188L19 5.38672L19.2988 4.92188C21.1487 2.04676 24.1061 0.355701 27.4814 0.355469ZM27.4824 2.81152C24.1285 2.81152 21.3041 4.83085 20.0371 8.07715L19.9199 8.39453C19.8382 8.62658 19.7016 8.81685 19.5361 8.94629C19.3716 9.07487 19.185 9.13867 19 9.13867C18.815 9.13867 18.6284 9.07487 18.4639 8.94629C18.3398 8.84925 18.2319 8.71787 18.1514 8.56055L18.0801 8.39453C16.877 4.96934 13.9798 2.81152 10.5176 2.81152C8.33535 2.81484 6.25614 3.82835 4.73242 5.60645C3.21019 7.38284 2.36118 9.7813 2.3584 12.2734L2.36816 12.7842C2.56972 18.0473 5.85041 22.9937 9.43457 26.876C13.145 30.895 17.2409 33.8384 18.7998 34.8984L19 35.0342L19.2002 34.8984C20.7574 33.8374 24.8536 30.8899 28.5645 26.8691C32.2645 22.86 35.6416 17.7189 35.6416 12.2734L35.6309 11.8076C35.5298 9.48407 34.6947 7.2719 33.2676 5.60645C31.7439 3.82835 29.6646 2.81484 27.4824 2.81152Z" fill="#FFC700" stroke="#FFC700" stroke-width="0.711458"/>
</svg>
