<svg width="170" height="51" viewBox="0 0 170 51" fill="none" xmlns="http://www.w3.org/2000/svg">
<path d="M12.4234 29H7.50263C7.11788 29 6.83438 28.919 6.65213 28.757C6.49013 28.5747 6.40913 28.2912 6.40913 27.9065V12.9924H1.944C1.55925 12.9924 1.27575 12.9114 1.0935 12.7494C0.9315 12.5671 0.8505 12.2836 0.8505 11.8989V8.2235C0.8505 7.83875 0.9315 7.56537 1.0935 7.40337C1.27575 7.22112 1.55925 7.13 1.944 7.13H17.982C18.3668 7.13 18.6401 7.22112 18.8021 7.40337C18.9844 7.56537 19.0755 7.83875 19.0755 8.2235V11.8989C19.0755 12.2836 18.9844 12.5671 18.8021 12.7494C18.6401 12.9114 18.3668 12.9924 17.982 12.9924H13.5169V27.9065C13.5169 28.2912 13.4258 28.5747 13.2435 28.757C13.0815 28.919 12.8081 29 12.4234 29ZM9.81113 26.2662H10.1149V10.1675H16.3418V9.86375H3.58425V10.1675H9.81113V26.2662ZM22.637 29C22.2522 29 21.9687 28.919 21.7865 28.757C21.6245 28.5747 21.5435 28.2912 21.5435 27.9065V24.2919C21.5435 23.9071 21.6245 23.6337 21.7865 23.4717C21.9687 23.2895 22.2522 23.1984 22.637 23.1984H25.6441V12.9924H22.637C22.2522 12.9924 21.9687 12.9114 21.7865 12.7494C21.6245 12.5671 21.5435 12.2836 21.5435 11.8989V8.2235C21.5435 7.83875 21.6245 7.56537 21.7865 7.40337C21.9687 7.22112 22.2522 7.13 22.637 7.13H35.5767C35.9615 7.13 36.2348 7.22112 36.3968 7.40337C36.5791 7.56537 36.6702 7.83875 36.6702 8.2235V11.8989C36.6702 12.2836 36.5791 12.5671 36.3968 12.7494C36.2348 12.9114 35.9615 12.9924 35.5767 12.9924H32.6303V23.1984H35.5767C35.9615 23.1984 36.2348 23.2895 36.3968 23.4717C36.5791 23.6337 36.6702 23.9071 36.6702 24.2919V27.9065C36.6702 28.2912 36.5791 28.5747 36.3968 28.757C36.2348 28.919 35.9615 29 35.5767 29H22.637ZM33.9365 26.2662V25.9625H29.2891V10.1675H33.9365V9.86375H24.2772V10.1675H28.9853V25.9625H24.2772V26.2662H33.9365ZM54.9702 29H47.5587C45.0275 29 43.1442 28.4937 41.909 27.4812C40.694 26.4687 40.0865 24.9095 40.0865 22.8035V13.3569C40.0865 11.2509 40.694 9.69162 41.909 8.67912C43.1442 7.64637 45.0275 7.13 47.5587 7.13H54.9702C55.355 7.13 55.6283 7.22112 55.7903 7.40337C55.9726 7.56537 56.0637 7.83875 56.0637 8.2235V11.8989C56.0637 12.2836 55.9726 12.5671 55.7903 12.7494C55.6283 12.9114 55.355 12.9924 54.9702 12.9924H48.8648C48.2371 12.9924 47.7713 13.124 47.4676 13.3873C47.1638 13.6302 47.012 14.0049 47.012 14.5111V21.7404C47.012 22.2466 47.1638 22.6212 47.4676 22.8642C47.7713 23.087 48.2371 23.1984 48.8648 23.1984H54.9702C55.355 23.1984 55.6283 23.2895 55.7903 23.4717C55.9726 23.6337 56.0637 23.9071 56.0637 24.2919V27.9065C56.0637 28.2912 55.9726 28.5747 55.7903 28.757C55.6283 28.919 55.355 29 54.9702 29ZM53.2996 25.9625H48.227C46.4045 25.9625 45.1895 25.6891 44.582 25.1424C43.9745 24.5956 43.6707 23.6641 43.6707 22.3479V13.8429C43.6707 12.5064 43.9846 11.5647 44.6123 11.018C45.2401 10.451 46.445 10.1675 48.227 10.1675H53.2996V9.86375H48.227C46.283 9.86375 44.987 10.1675 44.339 10.775C43.691 11.3825 43.367 12.4051 43.367 13.8429V22.3479C43.367 23.7451 43.6808 24.7475 44.3086 25.355C44.9566 25.9625 46.2627 26.2662 48.227 26.2662H53.2996V25.9625ZM63.1086 26.2662V18.2472H71.2794C72.3932 18.2472 73.2336 18.4497 73.8006 18.8547C74.3676 19.2597 74.6511 19.9482 74.6511 20.9202V26.2662H74.9548V20.9202C74.9548 19.8672 74.6511 19.1079 74.0436 18.6421C73.4361 18.1764 72.5147 17.9435 71.2794 17.9435H70.0341L73.5272 9.86375H73.1931L69.6999 17.9435H63.1086V9.86375H62.8048V26.2662H63.1086ZM65.2956 29H60.5874C60.2027 29 59.9192 28.919 59.7369 28.757C59.5749 28.5747 59.4939 28.2912 59.4939 27.9065V8.2235C59.4939 7.83875 59.5749 7.56537 59.7369 7.40337C59.9192 7.22112 60.2027 7.13 60.5874 7.13H65.2956C65.6803 7.13 65.9537 7.22112 66.1157 7.40337C66.2979 7.56537 66.3891 7.83875 66.3891 8.2235V15.2097H67.6041L70.7327 8.13237C70.8744 7.76787 71.0668 7.51475 71.3098 7.373C71.5528 7.211 71.8667 7.13 72.2514 7.13H76.9292C77.2734 7.13 77.5063 7.22112 77.6278 7.40337C77.7493 7.56537 77.7392 7.80837 77.5974 8.13237L74.4992 15.2097C75.6332 15.2705 76.5343 15.6755 77.2026 16.4247C77.8911 17.1537 78.2353 18.1257 78.2353 19.3407V27.9065C78.2353 28.2912 78.1442 28.5747 77.9619 28.757C77.7999 28.919 77.5266 29 77.1418 29H72.4641C72.0793 29 71.7958 28.919 71.6136 28.757C71.4516 28.5747 71.3706 28.2912 71.3706 27.9065V21.9834C71.3706 21.6594 71.2896 21.4062 71.1276 21.224C70.9656 21.0417 70.7226 20.9506 70.3986 20.9506H66.3891V27.9065C66.3891 28.2912 66.2979 28.5747 66.1157 28.757C65.9537 28.919 65.6803 29 65.2956 29ZM97.344 29H83.25C82.8653 29 82.5818 28.919 82.3995 28.757C82.2375 28.5747 82.1565 28.2912 82.1565 27.9065V8.2235C82.1565 7.83875 82.2375 7.56537 82.3995 7.40337C82.5818 7.22112 82.8653 7.13 83.25 7.13H97.344C97.7288 7.13 98.0022 7.22112 98.1642 7.40337C98.3464 7.56537 98.4375 7.83875 98.4375 8.2235V11.7774C98.4375 12.1621 98.3464 12.4456 98.1642 12.6279C98.0022 12.7899 97.7288 12.8709 97.344 12.8709H88.9605V15.2097H94.8837C95.2684 15.2097 95.5418 15.3009 95.7038 15.4831C95.886 15.6451 95.9772 15.9185 95.9772 16.3032V19.5534C95.9772 19.9381 95.886 20.2216 95.7038 20.4039C95.5418 20.5659 95.2684 20.6469 94.8837 20.6469H88.9605V23.2591H97.344C97.7288 23.2591 98.0022 23.3502 98.1642 23.5325C98.3464 23.6945 98.4375 23.9679 98.4375 24.3526V27.9065C98.4375 28.2912 98.3464 28.5747 98.1642 28.757C98.0022 28.919 97.7288 29 97.344 29ZM95.7038 25.9625H85.7712V18.0954H93.2434V17.7916H85.7712V10.1675H95.7038V9.86375H85.4674V26.2662H95.7038V25.9625ZM112.237 10.1675C113.31 10.1675 114.1 10.4611 114.606 11.0484C115.133 11.6356 115.396 12.395 115.396 13.3265V15.4527C115.396 16.5665 115.183 17.4271 114.758 18.0346C114.333 18.6421 113.492 18.9459 112.237 18.9459H105.615V10.1675H112.237ZM108.896 12.5975V16.4855H111.174C111.7 16.4855 112.055 16.3539 112.237 16.0906C112.419 15.8071 112.51 15.4629 112.51 15.0579V14.0251C112.51 13.6201 112.419 13.286 112.237 13.0227C112.055 12.7392 111.7 12.5975 111.174 12.5975H108.896ZM105.615 26.2662V19.2192H114.211C115.365 19.2192 116.216 19.4724 116.763 19.9786C117.309 20.4646 117.583 21.2037 117.583 22.196V26.2662H117.887V22.196C117.887 21.143 117.583 20.3431 116.975 19.7964C116.368 19.2294 115.446 18.9459 114.211 18.9459H113.877C114.606 18.7231 115.092 18.3181 115.335 17.7309C115.578 17.1234 115.7 16.3539 115.7 15.4224V13.3265C115.7 12.3342 115.416 11.5141 114.849 10.8661C114.282 10.1979 113.411 9.86375 112.237 9.86375H105.311V26.2662H105.615ZM107.802 29H103.124C102.74 29 102.456 28.919 102.274 28.757C102.112 28.5747 102.031 28.2912 102.031 27.9065V8.2235C102.031 7.83875 102.112 7.56537 102.274 7.40337C102.456 7.22112 102.74 7.13 103.124 7.13H113.239C115.507 7.13 117.066 7.60587 117.917 8.55762C118.788 9.48912 119.223 10.7041 119.223 12.2026V13.5999C119.223 14.4504 119.091 15.1794 118.828 15.7869C118.585 16.3741 118.15 16.7994 117.522 17.0626C118.616 17.1841 119.496 17.6296 120.165 18.3991C120.853 19.1686 121.197 20.1912 121.197 21.467V27.9065C121.197 28.2912 121.106 28.5747 120.924 28.757C120.762 28.919 120.489 29 120.104 29H115.396C115.011 29 114.728 28.919 114.545 28.757C114.383 28.5747 114.302 28.2912 114.302 27.9065V23.2591C114.302 22.8136 114.211 22.4896 114.029 22.2871C113.867 22.0644 113.573 21.953 113.148 21.953H108.896V27.9065C108.896 28.2912 108.804 28.5747 108.622 28.757C108.46 28.919 108.187 29 107.802 29Z" fill="url(#paint0_linear_143_8)"/>
<path d="M8.60625 46.375H5.99063C5.77688 46.375 5.61938 46.33 5.51813 46.24C5.42813 46.1387 5.38313 45.9812 5.38313 45.7675V34.8325C5.38313 34.6187 5.42813 34.4669 5.51813 34.3769C5.61938 34.2756 5.77688 34.225 5.99063 34.225H13.5169C13.7306 34.225 13.8825 34.2756 13.9725 34.3769C14.0738 34.4669 14.1244 34.6187 14.1244 34.8325V36.8406C14.1244 37.0544 14.0738 37.2119 13.9725 37.3131C13.8825 37.4031 13.7306 37.4481 13.5169 37.4481H9.21375V39.2031H12.15C12.3638 39.2031 12.5156 39.2537 12.6056 39.355C12.7069 39.445 12.7575 39.5969 12.7575 39.8106V41.8356C12.7575 42.0494 12.7069 42.2069 12.6056 42.3081C12.5156 42.3981 12.3638 42.4431 12.15 42.4431H9.21375V45.7675C9.21375 45.9812 9.16313 46.1387 9.06188 46.24C8.97188 46.33 8.82 46.375 8.60625 46.375ZM7.2225 44.8562H7.39125V40.9075H11.2388V40.7387H7.39125V35.9125H12.6056V35.7437H7.2225V44.8562ZM26.026 43.1856C26.026 43.7031 25.9472 44.1756 25.7897 44.6031C25.6435 45.0194 25.3735 45.3794 24.9797 45.6831C24.5972 45.9756 24.0629 46.2062 23.3766 46.375C22.7016 46.5438 21.841 46.6281 20.7947 46.6281C19.7485 46.6281 18.8822 46.5438 18.196 46.375C17.5097 46.2062 16.9697 45.9756 16.576 45.6831C16.1935 45.3794 15.9235 45.0194 15.766 44.6031C15.6197 44.1756 15.5466 43.7031 15.5466 43.1856V37.4312C15.5466 36.9137 15.6197 36.4469 15.766 36.0306C15.9235 35.6031 16.1935 35.2375 16.576 34.9337C16.9697 34.63 17.5097 34.3937 18.196 34.225C18.8822 34.0562 19.7485 33.9719 20.7947 33.9719C21.841 33.9719 22.7016 34.0562 23.3766 34.225C24.0629 34.3937 24.5972 34.63 24.9797 34.9337C25.3735 35.2375 25.6435 35.6031 25.7897 36.0306C25.9472 36.4469 26.026 36.9137 26.026 37.4312V43.1856ZM24.1866 42.7975V37.8194C24.1866 37.1444 23.9447 36.5987 23.461 36.1825C22.9772 35.755 22.0772 35.5412 20.761 35.5412C19.4447 35.5412 18.5504 35.755 18.0779 36.1825C17.6054 36.5987 17.3691 37.1444 17.3691 37.8194V42.7975C17.3691 43.4725 17.6054 44.0237 18.0779 44.4512C18.5504 44.8675 19.4447 45.0756 20.761 45.0756C22.0772 45.0756 22.9772 44.8675 23.461 44.4512C23.9447 44.0237 24.1866 43.4725 24.1866 42.7975ZM17.5379 42.7975V37.8194C17.5379 37.1894 17.7629 36.6831 18.2129 36.3006C18.6629 35.9069 19.5122 35.71 20.761 35.71C22.0097 35.71 22.8647 35.9069 23.326 36.3006C23.7872 36.6831 24.0179 37.1894 24.0179 37.8194V42.7975C24.0179 43.4275 23.7872 43.9394 23.326 44.3331C22.8647 44.7156 22.0097 44.9069 20.761 44.9069C19.5122 44.9069 18.6629 44.7156 18.2129 44.3331C17.7629 43.9394 17.5379 43.4275 17.5379 42.7975ZM19.3772 42.5781C19.3772 42.8031 19.4616 42.9944 19.6304 43.1519C19.7991 43.2981 20.1872 43.3712 20.7947 43.3712C21.4022 43.3712 21.7904 43.2981 21.9591 43.1519C22.1279 42.9944 22.2122 42.8031 22.2122 42.5781V38.0387C22.2122 37.825 22.1279 37.645 21.9591 37.4987C21.7904 37.3412 21.4022 37.2625 20.7947 37.2625C20.1872 37.2625 19.7991 37.3412 19.6304 37.4987C19.4616 37.645 19.3772 37.825 19.3772 38.0387V42.5781ZM33.8443 35.9125C34.4405 35.9125 34.8793 36.0756 35.1605 36.4019C35.453 36.7281 35.5993 37.15 35.5993 37.6675V38.8487C35.5993 39.4675 35.4811 39.9456 35.2449 40.2831C35.0086 40.6206 34.5418 40.7894 33.8443 40.7894H30.1655V35.9125H33.8443ZM31.988 37.2625V39.4225H33.2536C33.5461 39.4225 33.743 39.3494 33.8443 39.2031C33.9455 39.0456 33.9961 38.8544 33.9961 38.6294V38.0556C33.9961 37.8306 33.9455 37.645 33.8443 37.4987C33.743 37.3412 33.5461 37.2625 33.2536 37.2625H31.988ZM30.1655 44.8562V40.9412H34.9411C35.5824 40.9412 36.0549 41.0819 36.3586 41.3631C36.6624 41.6331 36.8143 42.0437 36.8143 42.595V44.8562H36.983V42.595C36.983 42.01 36.8143 41.5656 36.4768 41.2619C36.1393 40.9469 35.6274 40.7894 34.9411 40.7894H34.7555C35.1605 40.6656 35.4305 40.4406 35.5655 40.1144C35.7005 39.7769 35.768 39.3494 35.768 38.8319V37.6675C35.768 37.1162 35.6105 36.6606 35.2955 36.3006C34.9805 35.9294 34.4968 35.7437 33.8443 35.7437H29.9968V44.8562H30.1655ZM31.3805 46.375H28.7818C28.568 46.375 28.4105 46.33 28.3093 46.24C28.2193 46.1387 28.1743 45.9812 28.1743 45.7675V34.8325C28.1743 34.6187 28.2193 34.4669 28.3093 34.3769C28.4105 34.2756 28.568 34.225 28.7818 34.225H34.4011C35.6611 34.225 36.5274 34.4894 36.9999 35.0181C37.4836 35.5356 37.7255 36.2106 37.7255 37.0431V37.8194C37.7255 38.2919 37.6524 38.6969 37.5061 39.0344C37.3711 39.3606 37.1293 39.5969 36.7805 39.7431C37.388 39.8106 37.8774 40.0581 38.2486 40.4856C38.6311 40.9131 38.8224 41.4812 38.8224 42.19V45.7675C38.8224 45.9812 38.7718 46.1387 38.6705 46.24C38.5805 46.33 38.4286 46.375 38.2149 46.375H35.5993C35.3855 46.375 35.228 46.33 35.1268 46.24C35.0368 46.1387 34.9918 45.9812 34.9918 45.7675V43.1856C34.9918 42.9381 34.9411 42.7581 34.8399 42.6456C34.7499 42.5219 34.5868 42.46 34.3505 42.46H31.988V45.7675C31.988 45.9812 31.9374 46.1387 31.8361 46.24C31.7461 46.33 31.5943 46.375 31.3805 46.375ZM50.5 46.375H47.7663C47.5525 46.375 47.395 46.33 47.2938 46.24C47.2038 46.1387 47.1588 45.9812 47.1588 45.7675V43.6075L44.5769 40.1481C44.3181 39.7994 44.1438 39.4956 44.0538 39.2369C43.975 38.9781 43.9356 38.59 43.9356 38.0725V34.8325C43.9356 34.6187 43.9806 34.4669 44.0706 34.3769C44.1719 34.2756 44.3294 34.225 44.5431 34.225H47.1419C47.3556 34.225 47.5075 34.2756 47.5975 34.3769C47.6988 34.4669 47.7494 34.6187 47.7494 34.8325V37.6C47.7494 37.7125 47.755 37.8306 47.7663 37.9544C47.7775 38.0781 47.8225 38.1962 47.9013 38.3087L48.6775 39.5237C48.7338 39.625 48.79 39.6981 48.8463 39.7431C48.9138 39.7881 48.9925 39.8106 49.0825 39.8106H49.2513C49.3413 39.8106 49.4144 39.7881 49.4706 39.7431C49.5381 39.6981 49.6 39.625 49.6563 39.5237L50.4325 38.3087C50.5113 38.1962 50.5563 38.0781 50.5675 37.9544C50.5788 37.8306 50.5844 37.7125 50.5844 37.6V34.8325C50.5844 34.6187 50.6294 34.4669 50.7194 34.3769C50.8206 34.2756 50.9781 34.225 51.1919 34.225H53.7063C53.92 34.225 54.0719 34.2756 54.1619 34.3769C54.2631 34.4669 54.3138 34.6187 54.3138 34.8325V38.0725C54.3138 38.59 54.2688 38.9781 54.1788 39.2369C54.0888 39.4956 53.92 39.7994 53.6725 40.1481L51.1075 43.6244V45.7675C51.1075 45.9812 51.0569 46.1387 50.9556 46.24C50.8656 46.33 50.7138 46.375 50.5 46.375ZM49.3356 41.9706C49.5944 41.9706 49.8194 41.9144 50.0106 41.8019C50.2131 41.6894 50.4044 41.5094 50.5844 41.2619L52.2719 38.9837C52.4069 38.8037 52.48 38.6069 52.4913 38.3931C52.5138 38.1681 52.525 37.9319 52.525 37.6844V35.7437H52.3563V37.6844C52.3563 37.9206 52.345 38.1512 52.3225 38.3762C52.3 38.59 52.2325 38.77 52.12 38.9162L50.4325 41.1944C50.2638 41.4081 50.0894 41.5656 49.9094 41.6669C49.7406 41.7569 49.5494 41.8019 49.3356 41.8019H48.88C48.6888 41.8019 48.4975 41.7569 48.3063 41.6669C48.115 41.5769 47.9463 41.4194 47.8 41.1944L46.1631 38.9162C46.0506 38.7475 45.9831 38.5619 45.9606 38.3594C45.9381 38.1456 45.9269 37.9206 45.9269 37.6844V35.7437H45.7581V37.6844C45.7581 37.9319 45.7694 38.1681 45.7919 38.3931C45.8144 38.6181 45.8875 38.815 46.0113 38.9837L47.6481 41.2619C47.8281 41.5094 48.0138 41.6894 48.205 41.8019C48.4075 41.9144 48.6325 41.9706 48.88 41.9706H49.0488V44.8562H49.2175V41.9706H49.3356ZM66.5326 43.1856C66.5326 43.7031 66.4538 44.1756 66.2963 44.6031C66.1501 45.0194 65.8801 45.3794 65.4863 45.6831C65.1038 45.9756 64.5695 46.2062 63.8832 46.375C63.2082 46.5438 62.3476 46.6281 61.3013 46.6281C60.2551 46.6281 59.3888 46.5438 58.7026 46.375C58.0163 46.2062 57.4763 45.9756 57.0826 45.6831C56.7001 45.3794 56.4301 45.0194 56.2726 44.6031C56.1263 44.1756 56.0532 43.7031 56.0532 43.1856V37.4312C56.0532 36.9137 56.1263 36.4469 56.2726 36.0306C56.4301 35.6031 56.7001 35.2375 57.0826 34.9337C57.4763 34.63 58.0163 34.3937 58.7026 34.225C59.3888 34.0562 60.2551 33.9719 61.3013 33.9719C62.3476 33.9719 63.2082 34.0562 63.8832 34.225C64.5695 34.3937 65.1038 34.63 65.4863 34.9337C65.8801 35.2375 66.1501 35.6031 66.2963 36.0306C66.4538 36.4469 66.5326 36.9137 66.5326 37.4312V43.1856ZM64.6932 42.7975V37.8194C64.6932 37.1444 64.4513 36.5987 63.9676 36.1825C63.4838 35.755 62.5838 35.5412 61.2676 35.5412C59.9513 35.5412 59.057 35.755 58.5845 36.1825C58.112 36.5987 57.8757 37.1444 57.8757 37.8194V42.7975C57.8757 43.4725 58.112 44.0237 58.5845 44.4512C59.057 44.8675 59.9513 45.0756 61.2676 45.0756C62.5838 45.0756 63.4838 44.8675 63.9676 44.4512C64.4513 44.0237 64.6932 43.4725 64.6932 42.7975ZM58.0445 42.7975V37.8194C58.0445 37.1894 58.2695 36.6831 58.7195 36.3006C59.1695 35.9069 60.0188 35.71 61.2676 35.71C62.5163 35.71 63.3713 35.9069 63.8326 36.3006C64.2938 36.6831 64.5245 37.1894 64.5245 37.8194V42.7975C64.5245 43.4275 64.2938 43.9394 63.8326 44.3331C63.3713 44.7156 62.5163 44.9069 61.2676 44.9069C60.0188 44.9069 59.1695 44.7156 58.7195 44.3331C58.2695 43.9394 58.0445 43.4275 58.0445 42.7975ZM59.8838 42.5781C59.8838 42.8031 59.9682 42.9944 60.137 43.1519C60.3057 43.2981 60.6938 43.3712 61.3013 43.3712C61.9088 43.3712 62.297 43.2981 62.4657 43.1519C62.6345 42.9944 62.7188 42.8031 62.7188 42.5781V38.0387C62.7188 37.825 62.6345 37.645 62.4657 37.4987C62.297 37.3412 61.9088 37.2625 61.3013 37.2625C60.6938 37.2625 60.3057 37.3412 60.137 37.4987C59.9682 37.645 59.8838 37.825 59.8838 38.0387V42.5781ZM79.0252 43.1856C79.0252 43.7031 78.9465 44.1756 78.789 44.6031C78.6427 45.0194 78.3727 45.3794 77.979 45.6831C77.5965 45.9756 77.0677 46.2062 76.3927 46.375C75.7177 46.5438 74.8571 46.6281 73.8109 46.6281C72.7646 46.6281 71.904 46.5438 71.229 46.375C70.554 46.2062 70.0196 45.9756 69.6259 45.6831C69.2434 45.3794 68.9734 45.0194 68.8159 44.6031C68.6696 44.1756 68.5965 43.7031 68.5965 43.1856V34.8325C68.5965 34.6187 68.6415 34.4669 68.7315 34.3769C68.8327 34.2756 68.9902 34.225 69.204 34.225H71.8534C72.0671 34.225 72.219 34.2756 72.309 34.3769C72.4102 34.4669 72.4609 34.6187 72.4609 34.8325V42.5275C72.4609 42.7525 72.5452 42.9437 72.714 43.1012C72.8827 43.2475 73.2596 43.3206 73.8446 43.3206C74.4409 43.3206 74.8234 43.2475 74.9921 43.1012C75.1609 42.9437 75.2452 42.7525 75.2452 42.5275V34.8325C75.2452 34.6187 75.2902 34.4669 75.3802 34.3769C75.4815 34.2756 75.639 34.225 75.8527 34.225H78.4177C78.6315 34.225 78.7834 34.2756 78.8734 34.3769C78.9746 34.4669 79.0252 34.6187 79.0252 34.8325V43.1856ZM70.4527 35.7437V42.7806C70.4527 43.4556 70.6834 44.0069 71.1446 44.4344C71.6171 44.8506 72.5115 45.0587 73.8277 45.0587C75.144 45.0587 76.0384 44.8506 76.5109 44.4344C76.9834 44.0069 77.2196 43.4556 77.2196 42.7806V35.7437H77.0509V42.7806C77.0509 43.4106 76.8259 43.9225 76.3759 44.3162C75.9259 44.6987 75.0765 44.89 73.8277 44.89C72.579 44.89 71.7296 44.6987 71.2796 44.3162C70.8409 43.9225 70.6215 43.4106 70.6215 42.7806V35.7437H70.4527ZM86.9412 35.9125C87.5374 35.9125 87.9762 36.0756 88.2574 36.4019C88.5499 36.7281 88.6962 37.15 88.6962 37.6675V38.8487C88.6962 39.4675 88.5781 39.9456 88.3418 40.2831C88.1056 40.6206 87.6387 40.7894 86.9412 40.7894H83.2624V35.9125H86.9412ZM85.0849 37.2625V39.4225H86.3506C86.6431 39.4225 86.8399 39.3494 86.9412 39.2031C87.0424 39.0456 87.0931 38.8544 87.0931 38.6294V38.0556C87.0931 37.8306 87.0424 37.645 86.9412 37.4987C86.8399 37.3412 86.6431 37.2625 86.3506 37.2625H85.0849ZM83.2624 44.8562V40.9412H88.0381C88.6793 40.9412 89.1518 41.0819 89.4556 41.3631C89.7593 41.6331 89.9112 42.0437 89.9112 42.595V44.8562H90.0799V42.595C90.0799 42.01 89.9112 41.5656 89.5737 41.2619C89.2362 40.9469 88.7243 40.7894 88.0381 40.7894H87.8524C88.2574 40.6656 88.5274 40.4406 88.6624 40.1144C88.7974 39.7769 88.8649 39.3494 88.8649 38.8319V37.6675C88.8649 37.1162 88.7074 36.6606 88.3924 36.3006C88.0774 35.9294 87.5937 35.7437 86.9412 35.7437H83.0937V44.8562H83.2624ZM84.4774 46.375H81.8787C81.6649 46.375 81.5074 46.33 81.4062 46.24C81.3162 46.1387 81.2712 45.9812 81.2712 45.7675V34.8325C81.2712 34.6187 81.3162 34.4669 81.4062 34.3769C81.5074 34.2756 81.6649 34.225 81.8787 34.225H87.4981C88.7581 34.225 89.6243 34.4894 90.0968 35.0181C90.5806 35.5356 90.8224 36.2106 90.8224 37.0431V37.8194C90.8224 38.2919 90.7493 38.6969 90.6031 39.0344C90.4681 39.3606 90.2262 39.5969 89.8774 39.7431C90.4849 39.8106 90.9743 40.0581 91.3456 40.4856C91.7281 40.9131 91.9193 41.4812 91.9193 42.19V45.7675C91.9193 45.9812 91.8687 46.1387 91.7674 46.24C91.6774 46.33 91.5256 46.375 91.3118 46.375H88.6962C88.4824 46.375 88.3249 46.33 88.2237 46.24C88.1337 46.1387 88.0887 45.9812 88.0887 45.7675V43.1856C88.0887 42.9381 88.0381 42.7581 87.9368 42.6456C87.8468 42.5219 87.6837 42.46 87.4474 42.46H85.0849V45.7675C85.0849 45.9812 85.0343 46.1387 84.9331 46.24C84.8431 46.33 84.6912 46.375 84.4774 46.375ZM106.04 46.375H98.2099C97.9961 46.375 97.8386 46.33 97.7374 46.24C97.6474 46.1387 97.6024 45.9812 97.6024 45.7675V34.8325C97.6024 34.6187 97.6474 34.4669 97.7374 34.3769C97.8386 34.2756 97.9961 34.225 98.2099 34.225H106.04C106.254 34.225 106.405 34.2756 106.495 34.3769C106.597 34.4669 106.647 34.6187 106.647 34.8325V36.8069C106.647 37.0206 106.597 37.1781 106.495 37.2794C106.405 37.3694 106.254 37.4144 106.04 37.4144H101.382V38.7137H104.673C104.887 38.7137 105.039 38.7644 105.129 38.8656C105.23 38.9556 105.28 39.1075 105.28 39.3212V41.1269C105.28 41.3406 105.23 41.4981 105.129 41.5994C105.039 41.6894 104.887 41.7344 104.673 41.7344H101.382V43.1856H106.04C106.254 43.1856 106.405 43.2362 106.495 43.3375C106.597 43.4275 106.647 43.5794 106.647 43.7931V45.7675C106.647 45.9812 106.597 46.1387 106.495 46.24C106.405 46.33 106.254 46.375 106.04 46.375ZM105.129 44.6875H99.6105V40.3169H103.762V40.1481H99.6105V35.9125H105.129V35.7437H99.4417V44.8562H105.129V44.6875ZM115.832 46.375H111.445C111.231 46.375 111.051 46.3356 110.905 46.2569C110.77 46.1781 110.663 46.0319 110.584 45.8181L108.93 41.6837C108.829 41.4362 108.745 41.2225 108.677 41.0425C108.61 40.8512 108.554 40.6712 108.509 40.5025C108.464 40.3337 108.43 40.1594 108.407 39.9794C108.396 39.7881 108.39 39.5575 108.39 39.2875V34.8325C108.39 34.6187 108.435 34.4669 108.525 34.3769C108.627 34.2756 108.784 34.225 108.998 34.225H111.681C111.895 34.225 112.058 34.2756 112.17 34.3769C112.283 34.4669 112.339 34.6187 112.339 34.8325V39.49C112.339 39.6025 112.35 39.715 112.373 39.8275C112.395 39.94 112.429 40.0581 112.474 40.1819L113.267 42.5444C113.301 42.6569 113.34 42.7356 113.385 42.7806C113.43 42.8144 113.498 42.8312 113.588 42.8312H113.774C113.864 42.8312 113.931 42.8144 113.976 42.7806C114.021 42.7356 114.06 42.6569 114.094 42.5444L114.887 40.165C114.932 40.0412 114.966 39.9231 114.989 39.8106C115.011 39.6981 115.022 39.5856 115.022 39.4731V34.8325C115.022 34.6187 115.067 34.4669 115.157 34.3769C115.259 34.2756 115.416 34.225 115.63 34.225H118.279C118.493 34.225 118.645 34.2756 118.735 34.3769C118.836 34.4669 118.887 34.6187 118.887 34.8325V39.2875C118.887 39.5575 118.875 39.7881 118.853 39.9794C118.842 40.1594 118.814 40.3337 118.769 40.5025C118.724 40.6712 118.667 40.8512 118.6 41.0425C118.532 41.2225 118.448 41.4362 118.347 41.6837L116.693 45.8181C116.614 46.0319 116.502 46.1781 116.355 46.2569C116.22 46.3356 116.046 46.375 115.832 46.375ZM110.297 35.7437V39.3887C110.297 39.7037 110.314 39.9962 110.348 40.2662C110.393 40.525 110.466 40.7781 110.567 41.0256L111.681 43.7256C111.816 44.0519 111.968 44.3219 112.137 44.5356C112.305 44.7494 112.564 44.8562 112.913 44.8562H114.398C114.747 44.8562 115.005 44.7494 115.174 44.5356C115.343 44.3219 115.495 44.0519 115.63 43.7256L116.744 41.0256C116.845 40.7781 116.912 40.525 116.946 40.2662C116.991 39.9962 117.014 39.7037 117.014 39.3887V35.7437H116.845V39.3887C116.845 39.6812 116.822 39.9625 116.777 40.2325C116.732 40.4912 116.665 40.7331 116.575 40.9581L115.461 43.6581C115.349 43.9506 115.219 44.1981 115.073 44.4006C114.938 44.5919 114.713 44.6875 114.398 44.6875H112.913C112.598 44.6875 112.367 44.5919 112.221 44.4006C112.086 44.1981 111.962 43.9506 111.85 43.6581L110.736 40.9581C110.646 40.7331 110.579 40.4912 110.534 40.2325C110.489 39.9625 110.466 39.6812 110.466 39.3887V35.7437H110.297ZM129.408 46.375H121.578C121.364 46.375 121.207 46.33 121.105 46.24C121.015 46.1387 120.97 45.9812 120.97 45.7675V34.8325C120.97 34.6187 121.015 34.4669 121.105 34.3769C121.207 34.2756 121.364 34.225 121.578 34.225H129.408C129.622 34.225 129.773 34.2756 129.863 34.3769C129.965 34.4669 130.015 34.6187 130.015 34.8325V36.8069C130.015 37.0206 129.965 37.1781 129.863 37.2794C129.773 37.3694 129.622 37.4144 129.408 37.4144H124.75V38.7137H128.041C128.255 38.7137 128.407 38.7644 128.497 38.8656C128.598 38.9556 128.648 39.1075 128.648 39.3212V41.1269C128.648 41.3406 128.598 41.4981 128.497 41.5994C128.407 41.6894 128.255 41.7344 128.041 41.7344H124.75V43.1856H129.408C129.622 43.1856 129.773 43.2362 129.863 43.3375C129.965 43.4275 130.015 43.5794 130.015 43.7931V45.7675C130.015 45.9812 129.965 46.1387 129.863 46.24C129.773 46.33 129.622 46.375 129.408 46.375ZM128.497 44.6875H122.978V40.3169H127.13V40.1481H122.978V35.9125H128.497V35.7437H122.81V44.8562H128.497V44.6875ZM134.239 35.8787C134.183 35.8225 134.138 35.7831 134.104 35.7606C134.07 35.7381 134.031 35.7269 133.986 35.7269C133.941 35.7269 133.896 35.7437 133.851 35.7775C133.806 35.8112 133.783 35.8619 133.783 35.9294V44.8562H133.952V35.9631C133.952 35.9519 133.952 35.9406 133.952 35.9294C133.963 35.9181 133.975 35.9125 133.986 35.9125C133.997 35.9125 134.008 35.9181 134.02 35.9294C134.042 35.9406 134.059 35.9519 134.07 35.9631L140.449 43.1181V44.8562H140.618V35.7437H140.449V42.865L134.239 35.8787ZM135.15 46.375H132.619C132.405 46.375 132.248 46.33 132.147 46.24C132.057 46.1387 132.012 45.9812 132.012 45.7675V34.8325C132.012 34.6187 132.057 34.4669 132.147 34.3769C132.248 34.2756 132.405 34.225 132.619 34.225H134.374C134.588 34.225 134.768 34.2587 134.914 34.3262C135.072 34.3937 135.223 34.5119 135.37 34.6806L138.643 38.4269V34.8325C138.643 34.6187 138.688 34.4669 138.778 34.3769C138.88 34.2756 139.037 34.225 139.251 34.225H141.782C141.996 34.225 142.148 34.2756 142.238 34.3769C142.339 34.4669 142.39 34.6187 142.39 34.8325V45.7675C142.39 45.9812 142.339 46.1387 142.238 46.24C142.148 46.33 141.996 46.375 141.782 46.375H139.251C139.037 46.375 138.88 46.33 138.778 46.24C138.688 46.1387 138.643 45.9812 138.643 45.7675V43.6919L135.758 40.1987V45.7675C135.758 45.9812 135.707 46.1387 135.606 46.24C135.516 46.33 135.364 46.375 135.15 46.375ZM150.455 46.375H147.721C147.507 46.375 147.35 46.33 147.248 46.24C147.158 46.1387 147.113 45.9812 147.113 45.7675V37.4819H144.633C144.419 37.4819 144.262 37.4369 144.16 37.3469C144.07 37.2456 144.025 37.0881 144.025 36.8744V34.8325C144.025 34.6187 144.07 34.4669 144.16 34.3769C144.262 34.2756 144.419 34.225 144.633 34.225H153.543C153.757 34.225 153.908 34.2756 153.998 34.3769C154.1 34.4669 154.15 34.6187 154.15 34.8325V36.8744C154.15 37.0881 154.1 37.2456 153.998 37.3469C153.908 37.4369 153.757 37.4819 153.543 37.4819H151.062V45.7675C151.062 45.9812 151.012 46.1387 150.91 46.24C150.82 46.33 150.668 46.375 150.455 46.375ZM149.003 44.8562H149.172V35.9125H152.632V35.7437H145.544V35.9125H149.003V44.8562Z" fill="#4B4E6D"/>
<defs>
<linearGradient id="paint0_linear_143_8" x1="0" y1="18" x2="169.717" y2="18" gradientUnits="userSpaceOnUse">
<stop stop-color="#FFA800"/>
<stop offset="1" stop-color="#FF008A"/>
</linearGradient>
</defs>
</svg>
